<?xml version="1.0" encoding="utf-8"?>
<!-- Generator: Adobe Illustrator 15.1.0, SVG Export Plug-In . SVG Version: 6.00 Build 0)  -->
<!DOCTYPE svg PUBLIC "-//W3C//DTD SVG 1.1//EN" "http://www.w3.org/Graphics/SVG/1.1/DTD/svg11.dtd" [
	<!ENTITY ns_extend "http://ns.adobe.com/Extensibility/1.0/">
	<!ENTITY ns_ai "http://ns.adobe.com/AdobeIllustrator/10.0/">
	<!ENTITY ns_graphs "http://ns.adobe.com/Graphs/1.0/">
	<!ENTITY ns_vars "http://ns.adobe.com/Variables/1.0/">
	<!ENTITY ns_imrep "http://ns.adobe.com/ImageReplacement/1.0/">
	<!ENTITY ns_sfw "http://ns.adobe.com/SaveForWeb/1.0/">
	<!ENTITY ns_custom "http://ns.adobe.com/GenericCustomNamespace/1.0/">
	<!ENTITY ns_adobe_xpath "http://ns.adobe.com/XPath/1.0/">
]>
<svg version="1.1" xmlns:x="&ns_extend;" xmlns:i="&ns_ai;" xmlns:graph="&ns_graphs;"
	 xmlns="http://www.w3.org/2000/svg" xmlns:xlink="http://www.w3.org/1999/xlink" x="0px" y="0px" width="231px" height="229px"
	 viewBox="0 0 231 229" enable-background="new 0 0 231 229" xml:space="preserve">
<metadata>
	<sfw  xmlns="&ns_sfw;">
		<slices></slices>
		<sliceSourceBounds  x="-8076" y="-8306" width="16383" height="16383" bottomLeftOrigin="true"></sliceSourceBounds>
	</sfw>
</metadata>
<g id="Alignment">
</g>
<g id="graphic_layer">
	<g>
		<path fill="#FFFFFF" d="M35.346,125.613c-1.245,0.643-3.855,1.285-7.149,1.285c-7.63,0-13.333-4.818-13.333-13.735
			c0-8.514,5.743-14.217,14.137-14.217c3.333,0,5.502,0.723,6.426,1.205l-0.884,2.852c-1.285-0.643-3.172-1.125-5.421-1.125
			c-6.346,0-10.563,4.056-10.563,11.165c0,6.667,3.815,10.884,10.362,10.884c2.168,0,4.337-0.441,5.743-1.124L35.346,125.613z"/>
		<path fill="#FFFFFF" d="M56.791,116.577c0,7.189-5.021,10.321-9.679,10.321c-5.221,0-9.317-3.854-9.317-10
			c0-6.466,4.297-10.281,9.639-10.281C53.016,106.617,56.791,110.674,56.791,116.577z M41.409,116.778c0,4.257,2.41,7.47,5.863,7.47
			c3.374,0,5.904-3.173,5.904-7.55c0-3.293-1.646-7.43-5.823-7.43C43.216,109.268,41.409,113.124,41.409,116.778z"/>
		<path fill="#FFFFFF" d="M61.248,97.942h3.534v28.515h-3.534V97.942z"/>
		<path fill="#FFFFFF" d="M88.316,116.577c0,7.189-5.02,10.321-9.679,10.321c-5.221,0-9.317-3.854-9.317-10
			c0-6.466,4.297-10.281,9.639-10.281C84.541,106.617,88.316,110.674,88.316,116.577z M72.934,116.778c0,4.257,2.41,7.47,5.864,7.47
			c3.373,0,5.903-3.173,5.903-7.55c0-3.293-1.646-7.43-5.823-7.43C74.741,109.268,72.934,113.124,72.934,116.778z"/>
		<path fill="#FFFFFF" d="M92.773,113.083c0-2.29-0.04-4.257-0.161-6.064h3.093l0.16,3.855h0.121
			c0.884-2.61,3.052-4.257,5.422-4.257c0.361,0,0.643,0.041,0.964,0.081v3.333c-0.361-0.081-0.723-0.081-1.205-0.081
			c-2.49,0-4.257,1.848-4.739,4.498c-0.08,0.482-0.121,1.084-0.121,1.647v10.361h-3.534V113.083z"/>
		<path fill="#FFFFFF" d="M137.351,114.569c-0.201-3.775-0.441-8.354-0.441-11.687h-0.081c-0.964,3.133-2.048,6.546-3.413,10.281
			l-4.779,13.133h-2.65l-4.418-12.892c-1.285-3.855-2.329-7.31-3.093-10.522h-0.08c-0.08,3.374-0.281,7.872-0.521,11.968
			l-0.724,11.606h-3.333l1.887-27.068h4.458l4.618,13.092c1.125,3.333,2.008,6.305,2.731,9.117h0.08
			c0.723-2.73,1.687-5.703,2.892-9.117l4.819-13.092h4.457l1.688,27.068h-3.454L137.351,114.569z"/>
		<path fill="#FFFFFF" d="M160.603,121.799c0,1.687,0.08,3.333,0.28,4.658h-3.172l-0.281-2.45h-0.121
			c-1.084,1.526-3.172,2.892-5.943,2.892c-3.936,0-5.944-2.771-5.944-5.582c0-4.698,4.177-7.269,11.688-7.229v-0.402
			c0-1.566-0.442-4.498-4.418-4.458c-1.848,0-3.735,0.522-5.101,1.446l-0.803-2.37c1.606-1.004,3.976-1.687,6.426-1.687
			c5.943,0,7.39,4.057,7.39,7.912V121.799z M157.188,116.537c-3.855-0.08-8.233,0.603-8.233,4.378c0,2.329,1.526,3.373,3.294,3.373
			c2.57,0,4.217-1.606,4.778-3.253c0.121-0.401,0.161-0.803,0.161-1.124V116.537z"/>
		<path fill="#FFFFFF" d="M170.4,102.36v4.659h5.061v2.691H170.4v10.482c0,2.409,0.684,3.774,2.651,3.774
			c0.964,0,1.525-0.08,2.048-0.24l0.16,2.69c-0.683,0.241-1.767,0.481-3.132,0.481c-1.646,0-2.972-0.562-3.815-1.485
			c-0.964-1.085-1.365-2.812-1.365-5.101V109.71h-3.013v-2.691h3.013v-3.615L170.4,102.36z"/>
		<path fill="#FFFFFF" d="M193.051,125.774c-0.924,0.441-2.972,1.124-5.582,1.124c-5.863,0-9.679-3.976-9.679-9.919
			c0-5.984,4.097-10.362,10.441-10.362c2.089,0,3.937,0.522,4.899,1.044l-0.803,2.691c-0.844-0.442-2.169-0.924-4.097-0.924
			c-4.458,0-6.867,3.333-6.867,7.35c0,4.498,2.892,7.269,6.747,7.269c2.008,0,3.333-0.481,4.337-0.923L193.051,125.774z"/>
		<path fill="#FFFFFF" d="M197.188,97.942h3.534v12.169h0.08c0.563-1.004,1.446-1.928,2.53-2.53
			c1.045-0.602,2.289-0.964,3.615-0.964c2.61,0,6.787,1.606,6.787,8.273v11.566H210.2v-11.165c0-3.132-1.165-5.743-4.498-5.743
			c-2.29,0-4.057,1.606-4.739,3.494c-0.201,0.522-0.241,1.044-0.241,1.687v11.727h-3.534V97.942z"/>
	</g>
</g>
</svg>
