<?xml version="1.0" encoding="utf-8"?>
<!-- Generator: Adobe Illustrator 15.1.0, SVG Export Plug-In . SVG Version: 6.00 Build 0)  -->
<!DOCTYPE svg PUBLIC "-//W3C//DTD SVG 1.1//EN" "http://www.w3.org/Graphics/SVG/1.1/DTD/svg11.dtd" [
	<!ENTITY ns_extend "http://ns.adobe.com/Extensibility/1.0/">
	<!ENTITY ns_ai "http://ns.adobe.com/AdobeIllustrator/10.0/">
	<!ENTITY ns_graphs "http://ns.adobe.com/Graphs/1.0/">
	<!ENTITY ns_vars "http://ns.adobe.com/Variables/1.0/">
	<!ENTITY ns_imrep "http://ns.adobe.com/ImageReplacement/1.0/">
	<!ENTITY ns_sfw "http://ns.adobe.com/SaveForWeb/1.0/">
	<!ENTITY ns_custom "http://ns.adobe.com/GenericCustomNamespace/1.0/">
	<!ENTITY ns_adobe_xpath "http://ns.adobe.com/XPath/1.0/">
]>
<svg version="1.1" xmlns:x="&ns_extend;" xmlns:i="&ns_ai;" xmlns:graph="&ns_graphs;"
	 xmlns="http://www.w3.org/2000/svg" xmlns:xlink="http://www.w3.org/1999/xlink" x="0px" y="0px" width="231px" height="229px"
	 viewBox="0 0 231 229" enable-background="new 0 0 231 229" xml:space="preserve">
<metadata>
	<sfw  xmlns="&ns_sfw;">
		<slices></slices>
		<sliceSourceBounds  x="-8076" y="-8306" width="16383" height="16383" bottomLeftOrigin="true"></sliceSourceBounds>
	</sfw>
</metadata>
<g id="Alignment">
</g>
<g id="graphic_layer">
	<g>
		<path fill="#FFFFFF" d="M30.112,125.252c-1.566,0.603-4.699,1.486-8.354,1.486c-4.096,0-7.47-1.044-10.12-3.574
			c-2.33-2.249-3.775-5.863-3.775-10.081c0-8.073,5.583-13.976,14.659-13.976c3.133,0,5.623,0.683,6.788,1.245l-0.884,2.851
			c-1.446-0.683-3.253-1.165-5.984-1.165c-6.586,0-10.884,4.097-10.884,10.884c0,6.867,4.096,10.924,10.442,10.924
			c2.289,0,3.855-0.321,4.659-0.723v-8.072h-5.462v-2.812h8.916V125.252z"/>
		<path fill="#FFFFFF" d="M51.558,121.116c0,2.048,0.041,3.814,0.161,5.341h-3.133l-0.201-3.173h-0.081
			c-0.883,1.566-2.972,3.614-6.426,3.614c-3.052,0-6.707-1.727-6.707-8.514v-11.366h3.534v10.723c0,3.695,1.165,6.225,4.338,6.225
			c2.369,0,4.016-1.646,4.658-3.253c0.201-0.481,0.321-1.124,0.321-1.807v-11.888h3.534V121.116z"/>
		<path fill="#FFFFFF" d="M61.356,101.557c0,1.205-0.844,2.168-2.249,2.168c-1.285,0-2.129-0.964-2.129-2.168
			s0.884-2.209,2.209-2.209C60.473,99.348,61.356,100.312,61.356,101.557z M57.42,126.457v-19.438h3.534v19.438H57.42z"/>
		<path fill="#FFFFFF" d="M83.564,97.942v23.495c0,1.727,0.081,3.694,0.161,5.02h-3.133l-0.161-3.373h-0.121
			c-1.044,2.168-3.374,3.814-6.546,3.814c-4.699,0-8.354-3.976-8.354-9.879c-0.041-6.466,4.016-10.402,8.715-10.402
			c3.012,0,4.98,1.406,5.863,2.932h0.081V97.942H83.564z M80.071,114.931c0-0.441-0.041-1.044-0.161-1.486
			c-0.522-2.209-2.45-4.056-5.101-4.056c-3.655,0-5.823,3.213-5.823,7.47c0,3.937,1.968,7.188,5.743,7.188
			c2.369,0,4.538-1.605,5.181-4.216c0.12-0.482,0.161-0.964,0.161-1.526V114.931z"/>
		<path fill="#FFFFFF" d="M91.436,117.381c0.08,4.779,3.092,6.747,6.667,6.747c2.53,0,4.096-0.441,5.381-1.004l0.643,2.53
			c-1.245,0.562-3.414,1.244-6.506,1.244c-5.984,0-9.559-3.976-9.559-9.839c0-5.864,3.454-10.442,9.117-10.442
			c6.386,0,8.032,5.542,8.032,9.117c0,0.723-0.04,1.245-0.121,1.646H91.436z M101.797,114.851c0.04-2.209-0.924-5.703-4.899-5.703
			c-3.615,0-5.141,3.253-5.422,5.703H101.797z"/>
		<path fill="#FFFFFF" d="M126.335,97.942v23.495c0,1.727,0.08,3.694,0.16,5.02h-3.132l-0.161-3.373h-0.12
			c-1.044,2.168-3.374,3.814-6.547,3.814c-4.699,0-8.354-3.976-8.354-9.879c-0.04-6.466,4.017-10.402,8.716-10.402
			c3.012,0,4.979,1.406,5.863,2.932h0.08V97.942H126.335z M122.841,114.931c0-0.441-0.04-1.044-0.161-1.486
			c-0.521-2.209-2.449-4.056-5.1-4.056c-3.655,0-5.824,3.213-5.824,7.47c0,3.937,1.968,7.188,5.743,7.188
			c2.37,0,4.539-1.605,5.181-4.216c0.121-0.482,0.161-0.964,0.161-1.526V114.931z"/>
		<path fill="#FFFFFF" d="M140.871,99.79c1.526-0.361,3.977-0.603,6.386-0.603c3.494,0,5.743,0.603,7.39,1.968
			c1.406,1.044,2.289,2.651,2.289,4.779c0,2.651-1.767,4.94-4.578,5.944v0.121c2.57,0.603,5.583,2.731,5.583,6.747
			c0,2.329-0.924,4.137-2.33,5.422c-1.847,1.727-4.899,2.53-9.317,2.53c-2.409,0-4.257-0.161-5.422-0.321V99.79z M144.365,110.875
			h3.173c3.655,0,5.823-1.968,5.823-4.579c0-3.132-2.369-4.417-5.903-4.417c-1.606,0-2.53,0.121-3.093,0.241V110.875z
			 M144.365,123.807c0.724,0.12,1.688,0.16,2.932,0.16c3.615,0,6.948-1.325,6.948-5.261c0-3.654-3.173-5.221-6.988-5.221h-2.892
			V123.807z"/>
		<path fill="#FFFFFF" d="M178.783,121.116c0,2.048,0.04,3.814,0.16,5.341h-3.133l-0.2-3.173h-0.08
			c-0.884,1.566-2.973,3.614-6.426,3.614c-3.053,0-6.707-1.727-6.707-8.514v-11.366h3.534v10.723c0,3.695,1.164,6.225,4.337,6.225
			c2.37,0,4.017-1.646,4.659-3.253c0.2-0.481,0.321-1.124,0.321-1.807v-11.888h3.534V121.116z"/>
		<path fill="#FFFFFF" d="M188.581,101.557c0,1.205-0.843,2.168-2.249,2.168c-1.285,0-2.128-0.964-2.128-2.168
			s0.884-2.209,2.209-2.209C187.698,99.348,188.581,100.312,188.581,101.557z M184.646,126.457v-19.438h3.534v19.438H184.646z"/>
		<path fill="#FFFFFF" d="M194.042,97.942h3.534v28.515h-3.534V97.942z"/>
		<path fill="#FFFFFF" d="M220.267,97.942v23.495c0,1.727,0.081,3.694,0.161,5.02h-3.133l-0.16-3.373h-0.121
			c-1.044,2.168-3.373,3.814-6.546,3.814c-4.699,0-8.354-3.976-8.354-9.879c-0.04-6.466,4.016-10.402,8.715-10.402
			c3.012,0,4.979,1.406,5.863,2.932h0.08V97.942H220.267z M216.772,114.931c0-0.441-0.04-1.044-0.16-1.486
			c-0.522-2.209-2.45-4.056-5.101-4.056c-3.654,0-5.823,3.213-5.823,7.47c0,3.937,1.968,7.188,5.743,7.188
			c2.369,0,4.538-1.605,5.181-4.216c0.12-0.482,0.16-0.964,0.16-1.526V114.931z"/>
	</g>
</g>
</svg>
