<?xml version="1.0" encoding="utf-8"?>
<!-- Generator: Adobe Illustrator 15.1.0, SVG Export Plug-In . SVG Version: 6.00 Build 0)  -->
<!DOCTYPE svg PUBLIC "-//W3C//DTD SVG 1.1//EN" "http://www.w3.org/Graphics/SVG/1.1/DTD/svg11.dtd" [
	<!ENTITY ns_extend "http://ns.adobe.com/Extensibility/1.0/">
	<!ENTITY ns_ai "http://ns.adobe.com/AdobeIllustrator/10.0/">
	<!ENTITY ns_graphs "http://ns.adobe.com/Graphs/1.0/">
	<!ENTITY ns_vars "http://ns.adobe.com/Variables/1.0/">
	<!ENTITY ns_imrep "http://ns.adobe.com/ImageReplacement/1.0/">
	<!ENTITY ns_sfw "http://ns.adobe.com/SaveForWeb/1.0/">
	<!ENTITY ns_custom "http://ns.adobe.com/GenericCustomNamespace/1.0/">
	<!ENTITY ns_adobe_xpath "http://ns.adobe.com/XPath/1.0/">
]>
<svg version="1.1" xmlns:x="&ns_extend;" xmlns:i="&ns_ai;" xmlns:graph="&ns_graphs;"
	 xmlns="http://www.w3.org/2000/svg" xmlns:xlink="http://www.w3.org/1999/xlink" x="0px" y="0px" width="231px" height="229px"
	 viewBox="0 0 231 229" enable-background="new 0 0 231 229" xml:space="preserve">
<metadata>
	<sfw  xmlns="&ns_sfw;">
		<slices></slices>
		<sliceSourceBounds  x="-8076" y="-8306" width="16383" height="16383" bottomLeftOrigin="true"></sliceSourceBounds>
	</sfw>
</metadata>
<g id="Alignment">
</g>
<g id="graphic_layer">
	<g>
		<path fill="#FFFFFF" d="M2.97,99.71c1.687-0.281,3.896-0.522,6.707-0.522c3.454,0,5.984,0.803,7.59,2.249
			c1.446,1.285,2.37,3.253,2.37,5.663c0,2.45-0.723,4.377-2.088,5.783c-1.888,1.968-4.86,2.972-8.273,2.972
			c-1.044,0-2.008-0.04-2.811-0.241v10.844H2.97V99.71z M6.464,112.762c0.763,0.201,1.727,0.281,2.892,0.281
			c4.217,0,6.787-2.088,6.787-5.743c0-3.615-2.57-5.341-6.386-5.341c-1.526,0-2.69,0.12-3.293,0.281V112.762z"/>
		<path fill="#FFFFFF" d="M23.572,113.083c0-2.29-0.04-4.257-0.161-6.064h3.093l0.16,3.855h0.121
			c0.884-2.61,3.052-4.257,5.422-4.257c0.361,0,0.643,0.041,0.964,0.081v3.333c-0.361-0.081-0.723-0.081-1.205-0.081
			c-2.49,0-4.257,1.848-4.739,4.498c-0.08,0.482-0.121,1.084-0.121,1.647v10.361h-3.534V113.083z"/>
		<path fill="#FFFFFF" d="M53.894,116.577c0,7.189-5.021,10.321-9.679,10.321c-5.221,0-9.317-3.854-9.317-10
			c0-6.466,4.297-10.281,9.639-10.281C50.118,106.617,53.894,110.674,53.894,116.577z M38.512,116.778c0,4.257,2.41,7.47,5.863,7.47
			c3.374,0,5.904-3.173,5.904-7.55c0-3.293-1.646-7.43-5.823-7.43C40.319,109.268,38.512,113.124,38.512,116.778z"/>
		<path fill="#FFFFFF" d="M74.977,123.605c0,4.498-0.924,7.189-2.771,8.916c-1.928,1.727-4.659,2.329-7.109,2.329
			c-2.329,0-4.899-0.563-6.466-1.606l0.883-2.73c1.285,0.843,3.293,1.566,5.703,1.566c3.614,0,6.265-1.888,6.265-6.828v-2.128
			h-0.081c-1.044,1.807-3.172,3.253-6.185,3.253c-4.819,0-8.273-4.097-8.273-9.479c0-6.586,4.297-10.281,8.795-10.281
			c3.374,0,5.181,1.727,6.064,3.333h0.081l0.12-2.932h3.133c-0.121,1.366-0.161,2.972-0.161,5.301V123.605z M71.443,114.69
			c0-0.603-0.041-1.125-0.201-1.566c-0.643-2.088-2.33-3.775-4.94-3.775c-3.374,0-5.783,2.851-5.783,7.35
			c0,3.815,1.968,6.988,5.743,6.988c2.209,0,4.177-1.366,4.9-3.615c0.201-0.603,0.281-1.285,0.281-1.888V114.69z"/>
		<path fill="#FFFFFF" d="M80.559,113.083c0-2.29-0.04-4.257-0.161-6.064h3.092l0.161,3.855h0.12
			c0.884-2.61,3.052-4.257,5.422-4.257c0.361,0,0.643,0.041,0.964,0.081v3.333c-0.361-0.081-0.723-0.081-1.205-0.081
			c-2.49,0-4.257,1.848-4.739,4.498c-0.081,0.482-0.121,1.084-0.121,1.647v10.361h-3.534V113.083z"/>
		<path fill="#FFFFFF" d="M107.145,121.799c0,1.687,0.081,3.333,0.281,4.658h-3.173l-0.281-2.45h-0.121
			c-1.084,1.526-3.173,2.892-5.944,2.892c-3.936,0-5.944-2.771-5.944-5.582c0-4.698,4.177-7.269,11.687-7.229v-0.402
			c0-1.566-0.442-4.498-4.418-4.458c-1.848,0-3.735,0.522-5.101,1.446l-0.803-2.37c1.606-1.004,3.976-1.687,6.426-1.687
			c5.944,0,7.39,4.057,7.39,7.912V121.799z M103.731,116.537c-3.855-0.08-8.233,0.603-8.233,4.378c0,2.329,1.526,3.373,3.293,3.373
			c2.57,0,4.217-1.606,4.779-3.253c0.121-0.401,0.161-0.803,0.161-1.124V116.537z"/>
		<path fill="#FFFFFF" d="M112.847,112.28c0-2.048-0.08-3.655-0.161-5.261h3.093l0.16,3.173h0.121
			c1.084-1.848,2.892-3.575,6.145-3.575c2.61,0,4.618,1.606,5.462,3.896h0.08c0.603-1.125,1.405-1.928,2.209-2.53
			c1.165-0.883,2.409-1.366,4.257-1.366c2.61,0,6.426,1.687,6.426,8.435v11.405h-3.454v-10.964c0-3.775-1.405-5.984-4.217-5.984
			c-2.048,0-3.574,1.486-4.217,3.173c-0.16,0.522-0.281,1.125-0.281,1.767v12.008h-3.454v-11.646c0-3.093-1.365-5.302-4.056-5.302
			c-2.169,0-3.815,1.768-4.378,3.534c-0.2,0.482-0.281,1.125-0.281,1.727v11.687h-3.454V112.28z"/>
		<path fill="#FFFFFF" d="M146.341,112.28c0-2.048-0.08-3.655-0.16-5.261h3.092l0.161,3.173h0.12
			c1.085-1.848,2.892-3.575,6.145-3.575c2.61,0,4.619,1.606,5.462,3.896h0.08c0.603-1.125,1.406-1.928,2.209-2.53
			c1.165-0.883,2.41-1.366,4.258-1.366c2.61,0,6.426,1.687,6.426,8.435v11.405h-3.454v-10.964c0-3.775-1.405-5.984-4.217-5.984
			c-2.049,0-3.574,1.486-4.217,3.173c-0.161,0.522-0.281,1.125-0.281,1.767v12.008h-3.454v-11.646c0-3.093-1.365-5.302-4.057-5.302
			c-2.168,0-3.814,1.768-4.377,3.534c-0.201,0.482-0.281,1.125-0.281,1.727v11.687h-3.454V112.28z"/>
		<path fill="#FFFFFF" d="M183.77,101.557c0,1.205-0.843,2.168-2.249,2.168c-1.285,0-2.128-0.964-2.128-2.168
			s0.883-2.209,2.209-2.209C182.887,99.348,183.77,100.312,183.77,101.557z M179.834,126.457v-19.438h3.534v19.438H179.834z"/>
		<path fill="#FFFFFF" d="M189.231,112.28c0-2.048-0.04-3.655-0.16-5.261h3.132l0.201,3.213h0.08
			c0.964-1.807,3.213-3.615,6.426-3.615c2.691,0,6.868,1.606,6.868,8.273v11.566h-3.534v-11.205c0-3.132-1.165-5.743-4.498-5.743
			c-2.289,0-4.097,1.647-4.739,3.615c-0.161,0.442-0.241,1.044-0.241,1.646v11.687h-3.534V112.28z"/>
		<path fill="#FFFFFF" d="M228.146,123.605c0,4.498-0.924,7.189-2.771,8.916c-1.928,1.727-4.658,2.329-7.108,2.329
			c-2.329,0-4.899-0.563-6.466-1.606l0.884-2.73c1.285,0.843,3.293,1.566,5.702,1.566c3.615,0,6.266-1.888,6.266-6.828v-2.128h-0.08
			c-1.045,1.807-3.173,3.253-6.186,3.253c-4.818,0-8.272-4.097-8.272-9.479c0-6.586,4.297-10.281,8.795-10.281
			c3.374,0,5.181,1.727,6.064,3.333h0.08l0.121-2.932h3.132c-0.12,1.366-0.16,2.972-0.16,5.301V123.605z M224.612,114.69
			c0-0.603-0.04-1.125-0.201-1.566c-0.643-2.088-2.329-3.775-4.939-3.775c-3.374,0-5.783,2.851-5.783,7.35
			c0,3.815,1.968,6.988,5.743,6.988c2.209,0,4.177-1.366,4.899-3.615c0.201-0.603,0.281-1.285,0.281-1.888V114.69z"/>
	</g>
</g>
</svg>
