<?xml version="1.0" encoding="utf-8"?>
<!-- Generator: Adobe Illustrator 15.1.0, SVG Export Plug-In . SVG Version: 6.00 Build 0)  -->
<!DOCTYPE svg PUBLIC "-//W3C//DTD SVG 1.1//EN" "http://www.w3.org/Graphics/SVG/1.1/DTD/svg11.dtd" [
	<!ENTITY ns_extend "http://ns.adobe.com/Extensibility/1.0/">
	<!ENTITY ns_ai "http://ns.adobe.com/AdobeIllustrator/10.0/">
	<!ENTITY ns_graphs "http://ns.adobe.com/Graphs/1.0/">
	<!ENTITY ns_vars "http://ns.adobe.com/Variables/1.0/">
	<!ENTITY ns_imrep "http://ns.adobe.com/ImageReplacement/1.0/">
	<!ENTITY ns_sfw "http://ns.adobe.com/SaveForWeb/1.0/">
	<!ENTITY ns_custom "http://ns.adobe.com/GenericCustomNamespace/1.0/">
	<!ENTITY ns_adobe_xpath "http://ns.adobe.com/XPath/1.0/">
]>
<svg version="1.1" xmlns:x="&ns_extend;" xmlns:i="&ns_ai;" xmlns:graph="&ns_graphs;"
	 xmlns="http://www.w3.org/2000/svg" xmlns:xlink="http://www.w3.org/1999/xlink" x="0px" y="0px" width="231px" height="229px"
	 viewBox="0 0 231 229" enable-background="new 0 0 231 229" xml:space="preserve">
<metadata>
	<sfw  xmlns="&ns_sfw;">
		<slices></slices>
		<sliceSourceBounds  x="-8076" y="-8306" width="16383" height="16383" bottomLeftOrigin="true"></sliceSourceBounds>
	</sfw>
</metadata>
<g id="Alignment">
</g>
<g id="graphic_layer">
	<g>
		<path fill="#FFFFFF" d="M2.61,122.2c1.566,1.004,3.815,1.767,6.225,1.767c3.574,0,5.663-1.887,5.663-4.618
			c0-2.49-1.446-3.976-5.1-5.342c-4.418-1.606-7.149-3.936-7.149-7.711c0-4.217,3.494-7.349,8.755-7.349
			c2.73,0,4.779,0.643,5.943,1.325l-0.964,2.852c-0.843-0.522-2.65-1.285-5.1-1.285c-3.695,0-5.101,2.208-5.101,4.056
			c0,2.53,1.646,3.775,5.381,5.221c4.579,1.768,6.868,3.977,6.868,7.952c0,4.177-3.052,7.831-9.438,7.831
			c-2.61,0-5.462-0.803-6.907-1.767L2.61,122.2z"/>
		<path fill="#FFFFFF" d="M22.73,97.942h3.534v12.169h0.081c0.562-1.004,1.446-1.928,2.53-2.53c1.044-0.602,2.289-0.964,3.614-0.964
			c2.61,0,6.787,1.606,6.787,8.273v11.566h-3.534v-11.165c0-3.132-1.165-5.743-4.498-5.743c-2.289,0-4.056,1.606-4.739,3.494
			c-0.201,0.522-0.241,1.044-0.241,1.687v11.727H22.73V97.942z"/>
		<path fill="#FFFFFF" d="M58.674,121.799c0,1.687,0.081,3.333,0.281,4.658h-3.173l-0.281-2.45h-0.121
			c-1.084,1.526-3.173,2.892-5.944,2.892c-3.936,0-5.944-2.771-5.944-5.582c0-4.698,4.177-7.269,11.687-7.229v-0.402
			c0-1.566-0.442-4.498-4.418-4.458c-1.848,0-3.735,0.522-5.101,1.446l-0.803-2.37c1.606-1.004,3.976-1.687,6.426-1.687
			c5.944,0,7.39,4.057,7.39,7.912V121.799z M55.26,116.537c-3.855-0.08-8.233,0.603-8.233,4.378c0,2.329,1.526,3.373,3.293,3.373
			c2.57,0,4.217-1.606,4.779-3.253c0.121-0.401,0.161-0.803,0.161-1.124V116.537z"/>
		<path fill="#FFFFFF" d="M64.375,113.364c0-2.49-0.08-4.498-0.161-6.345h3.133l0.201,3.333h0.08
			c1.406-2.37,3.735-3.735,6.908-3.735c4.739,0,8.273,3.976,8.273,9.84c0,6.988-4.297,10.441-8.875,10.441
			c-2.57,0-4.819-1.124-5.984-3.052h-0.08v10.563h-3.494V113.364z M67.87,118.546c0,0.521,0.04,1.004,0.161,1.445
			c0.643,2.45,2.771,4.137,5.301,4.137c3.735,0,5.904-3.053,5.904-7.51c0-3.856-2.048-7.189-5.783-7.189
			c-2.41,0-4.699,1.687-5.341,4.337c-0.121,0.442-0.241,0.964-0.241,1.406V118.546z"/>
		<path fill="#FFFFFF" d="M89.194,117.381c0.081,4.779,3.093,6.747,6.667,6.747c2.53,0,4.097-0.441,5.382-1.004l0.643,2.53
			c-1.245,0.562-3.414,1.244-6.506,1.244c-5.984,0-9.558-3.976-9.558-9.839c0-5.864,3.454-10.442,9.116-10.442
			c6.386,0,8.032,5.542,8.032,9.117c0,0.723-0.04,1.245-0.12,1.646H89.194z M99.556,114.851c0.04-2.209-0.924-5.703-4.9-5.703
			c-3.614,0-5.141,3.253-5.421,5.703H99.556z"/>
		<path fill="#FFFFFF" d="M119.475,99.389v11.325h13.093V99.389h3.534v27.068h-3.534v-12.691h-13.093v12.691h-3.535V99.389H119.475z
			"/>
		<path fill="#FFFFFF" d="M158.31,121.116c0,2.048,0.04,3.814,0.16,5.341h-3.133l-0.2-3.173h-0.08
			c-0.884,1.566-2.973,3.614-6.426,3.614c-3.053,0-6.707-1.727-6.707-8.514v-11.366h3.534v10.723c0,3.695,1.164,6.225,4.337,6.225
			c2.37,0,4.017-1.646,4.659-3.253c0.2-0.481,0.321-1.124,0.321-1.807v-11.888h3.534V121.116z"/>
		<path fill="#FFFFFF" d="M164.172,112.28c0-2.048-0.04-3.655-0.16-5.261h3.132l0.201,3.213h0.08
			c0.964-1.807,3.213-3.615,6.426-3.615c2.691,0,6.868,1.606,6.868,8.273v11.566h-3.534v-11.205c0-3.132-1.165-5.743-4.498-5.743
			c-2.289,0-4.097,1.647-4.739,3.615c-0.161,0.442-0.241,1.044-0.241,1.646v11.687h-3.534V112.28z"/>
		<path fill="#FFFFFF" d="M190.557,102.36v4.659h5.061v2.691h-5.061v10.482c0,2.409,0.683,3.774,2.651,3.774
			c0.964,0,1.525-0.08,2.048-0.24l0.161,2.69c-0.684,0.241-1.768,0.481-3.133,0.481c-1.646,0-2.973-0.562-3.815-1.485
			c-0.964-1.085-1.365-2.812-1.365-5.101V109.71h-3.013v-2.691h3.013v-3.615L190.557,102.36z"/>
		<path fill="#FFFFFF" d="M201.319,117.381c0.08,4.779,3.093,6.747,6.667,6.747c2.53,0,4.097-0.441,5.382-1.004l0.643,2.53
			c-1.245,0.562-3.414,1.244-6.506,1.244c-5.984,0-9.559-3.976-9.559-9.839c0-5.864,3.453-10.442,9.116-10.442
			c6.386,0,8.032,5.542,8.032,9.117c0,0.723-0.04,1.245-0.12,1.646H201.319z M211.681,114.851c0.041-2.209-0.923-5.703-4.899-5.703
			c-3.614,0-5.141,3.253-5.422,5.703H211.681z"/>
		<path fill="#FFFFFF" d="M219.472,113.083c0-2.29-0.04-4.257-0.16-6.064h3.092l0.161,3.855h0.12
			c0.884-2.61,3.053-4.257,5.422-4.257c0.361,0,0.643,0.041,0.964,0.081v3.333c-0.361-0.081-0.723-0.081-1.205-0.081
			c-2.489,0-4.257,1.848-4.739,4.498c-0.08,0.482-0.12,1.084-0.12,1.647v10.361h-3.534V113.083z"/>
	</g>
</g>
</svg>
