<?xml version="1.0" encoding="utf-8"?>
<!-- Generator: Adobe Illustrator 15.1.0, SVG Export Plug-In . SVG Version: 6.00 Build 0)  -->
<!DOCTYPE svg PUBLIC "-//W3C//DTD SVG 1.1//EN" "http://www.w3.org/Graphics/SVG/1.1/DTD/svg11.dtd" [
	<!ENTITY ns_extend "http://ns.adobe.com/Extensibility/1.0/">
	<!ENTITY ns_ai "http://ns.adobe.com/AdobeIllustrator/10.0/">
	<!ENTITY ns_graphs "http://ns.adobe.com/Graphs/1.0/">
	<!ENTITY ns_vars "http://ns.adobe.com/Variables/1.0/">
	<!ENTITY ns_imrep "http://ns.adobe.com/ImageReplacement/1.0/">
	<!ENTITY ns_sfw "http://ns.adobe.com/SaveForWeb/1.0/">
	<!ENTITY ns_custom "http://ns.adobe.com/GenericCustomNamespace/1.0/">
	<!ENTITY ns_adobe_xpath "http://ns.adobe.com/XPath/1.0/">
]>
<svg version="1.1" xmlns:x="&ns_extend;" xmlns:i="&ns_ai;" xmlns:graph="&ns_graphs;"
	 xmlns="http://www.w3.org/2000/svg" xmlns:xlink="http://www.w3.org/1999/xlink" x="0px" y="0px" width="231px" height="229px"
	 viewBox="0 0 231 229" enable-background="new 0 0 231 229" xml:space="preserve">
<metadata>
	<sfw  xmlns="&ns_sfw;">
		<slices></slices>
		<sliceSourceBounds  x="-8076" y="-8306" width="16383" height="16383" bottomLeftOrigin="true"></sliceSourceBounds>
	</sfw>
</metadata>
<g id="Alignment">
</g>
<g id="graphic_layer">
	<g>
		<path fill="#FFFFFF" d="M9.193,102.36H0.96v-2.972H21v2.972h-8.273v24.097H9.193V102.36z"/>
		<path fill="#FFFFFF" d="M34.976,121.799c0,1.687,0.081,3.333,0.281,4.658h-3.173l-0.281-2.45h-0.121
			c-1.084,1.526-3.173,2.892-5.944,2.892c-3.936,0-5.944-2.771-5.944-5.582c0-4.698,4.177-7.269,11.687-7.229v-0.402
			c0-1.566-0.442-4.498-4.418-4.458c-1.848,0-3.735,0.522-5.101,1.446l-0.803-2.37c1.606-1.004,3.976-1.687,6.426-1.687
			c5.944,0,7.39,4.057,7.39,7.912V121.799z M31.562,116.537c-3.855-0.08-8.233,0.603-8.233,4.378c0,2.329,1.526,3.373,3.293,3.373
			c2.57,0,4.217-1.606,4.779-3.253c0.121-0.401,0.161-0.803,0.161-1.124V116.537z"/>
		<path fill="#FFFFFF" d="M40.678,112.28c0-2.048-0.04-3.655-0.161-5.261h3.133l0.201,3.213h0.081
			c0.964-1.807,3.213-3.615,6.426-3.615c2.69,0,6.867,1.606,6.867,8.273v11.566H53.69v-11.205c0-3.132-1.165-5.743-4.498-5.743
			c-2.289,0-4.096,1.647-4.739,3.615c-0.161,0.442-0.241,1.044-0.241,1.646v11.687h-3.534V112.28z"/>
		<path fill="#FFFFFF" d="M79.593,123.605c0,4.498-0.924,7.189-2.771,8.916c-1.928,1.727-4.658,2.329-7.108,2.329
			c-2.329,0-4.899-0.563-6.466-1.606l0.884-2.73c1.285,0.843,3.293,1.566,5.703,1.566c3.615,0,6.265-1.888,6.265-6.828v-2.128h-0.08
			c-1.044,1.807-3.173,3.253-6.185,3.253c-4.819,0-8.273-4.097-8.273-9.479c0-6.586,4.297-10.281,8.795-10.281
			c3.374,0,5.181,1.727,6.064,3.333h0.08l0.121-2.932h3.133c-0.121,1.366-0.161,2.972-0.161,5.301V123.605z M76.059,114.69
			c0-0.603-0.04-1.125-0.201-1.566c-0.643-2.088-2.329-3.775-4.939-3.775c-3.374,0-5.783,2.851-5.783,7.35
			c0,3.815,1.968,6.988,5.743,6.988c2.208,0,4.177-1.366,4.899-3.615c0.201-0.603,0.281-1.285,0.281-1.888V114.69z"/>
		<path fill="#FFFFFF" d="M85.174,113.083c0-2.29-0.04-4.257-0.161-6.064h3.092l0.161,3.855h0.12
			c0.884-2.61,3.052-4.257,5.422-4.257c0.361,0,0.643,0.041,0.964,0.081v3.333c-0.361-0.081-0.723-0.081-1.205-0.081
			c-2.49,0-4.257,1.848-4.739,4.498c-0.081,0.482-0.121,1.084-0.121,1.647v10.361h-3.534V113.083z"/>
		<path fill="#FFFFFF" d="M111.761,121.799c0,1.687,0.081,3.333,0.281,4.658h-3.173l-0.281-2.45h-0.121
			c-1.084,1.526-3.173,2.892-5.944,2.892c-3.936,0-5.944-2.771-5.944-5.582c0-4.698,4.177-7.269,11.687-7.229v-0.402
			c0-1.566-0.442-4.498-4.418-4.458c-1.848,0-3.735,0.522-5.101,1.446l-0.803-2.37c1.606-1.004,3.976-1.687,6.426-1.687
			c5.944,0,7.39,4.057,7.39,7.912V121.799z M108.347,116.537c-3.855-0.08-8.233,0.603-8.233,4.378c0,2.329,1.526,3.373,3.293,3.373
			c2.57,0,4.217-1.606,4.779-3.253c0.121-0.401,0.161-0.803,0.161-1.124V116.537z"/>
		<path fill="#FFFFFF" d="M117.464,112.28c0-2.048-0.081-3.655-0.161-5.261h3.093l0.16,3.173h0.121
			c1.084-1.848,2.892-3.575,6.145-3.575c2.61,0,4.618,1.606,5.462,3.896h0.08c0.603-1.125,1.405-1.928,2.209-2.53
			c1.165-0.883,2.409-1.366,4.257-1.366c2.61,0,6.426,1.687,6.426,8.435v11.405h-3.454v-10.964c0-3.775-1.405-5.984-4.217-5.984
			c-2.048,0-3.574,1.486-4.217,3.173c-0.16,0.522-0.281,1.125-0.281,1.767v12.008h-3.454v-11.646c0-3.093-1.365-5.302-4.056-5.302
			c-2.169,0-3.815,1.768-4.378,3.534c-0.2,0.482-0.281,1.125-0.281,1.727v11.687h-3.453V112.28z"/>
		<path fill="#FFFFFF" d="M159.551,99.389h14.579v2.932h-11.045v8.996h10.201v2.892h-10.201v12.249h-3.534V99.389z"/>
		<path fill="#FFFFFF" d="M177.984,113.083c0-2.29-0.04-4.257-0.16-6.064h3.092l0.161,3.855h0.12
			c0.884-2.61,3.053-4.257,5.422-4.257c0.361,0,0.643,0.041,0.964,0.081v3.333c-0.361-0.081-0.723-0.081-1.205-0.081
			c-2.49,0-4.257,1.848-4.738,4.498c-0.081,0.482-0.121,1.084-0.121,1.647v10.361h-3.534V113.083z"/>
		<path fill="#FFFFFF" d="M192.684,117.381c0.081,4.779,3.093,6.747,6.667,6.747c2.53,0,4.097-0.441,5.382-1.004l0.643,2.53
			c-1.245,0.562-3.414,1.244-6.507,1.244c-5.983,0-9.558-3.976-9.558-9.839c0-5.864,3.454-10.442,9.116-10.442
			c6.386,0,8.032,5.542,8.032,9.117c0,0.723-0.04,1.245-0.12,1.646H192.684z M203.046,114.851c0.04-2.209-0.924-5.703-4.9-5.703
			c-3.614,0-5.141,3.253-5.422,5.703H203.046z"/>
		<path fill="#FFFFFF" d="M212.803,117.381c0.081,4.779,3.093,6.747,6.667,6.747c2.53,0,4.097-0.441,5.382-1.004l0.643,2.53
			c-1.245,0.562-3.414,1.244-6.507,1.244c-5.983,0-9.558-3.976-9.558-9.839c0-5.864,3.454-10.442,9.116-10.442
			c6.386,0,8.032,5.542,8.032,9.117c0,0.723-0.04,1.245-0.12,1.646H212.803z M223.165,114.851c0.04-2.209-0.924-5.703-4.9-5.703
			c-3.614,0-5.141,3.253-5.422,5.703H223.165z"/>
	</g>
</g>
</svg>
