<?xml version="1.0" encoding="utf-8"?>
<!-- Generator: Adobe Illustrator 15.1.0, SVG Export Plug-In . SVG Version: 6.00 Build 0)  -->
<!DOCTYPE svg PUBLIC "-//W3C//DTD SVG 1.1//EN" "http://www.w3.org/Graphics/SVG/1.1/DTD/svg11.dtd" [
	<!ENTITY ns_extend "http://ns.adobe.com/Extensibility/1.0/">
	<!ENTITY ns_ai "http://ns.adobe.com/AdobeIllustrator/10.0/">
	<!ENTITY ns_graphs "http://ns.adobe.com/Graphs/1.0/">
	<!ENTITY ns_vars "http://ns.adobe.com/Variables/1.0/">
	<!ENTITY ns_imrep "http://ns.adobe.com/ImageReplacement/1.0/">
	<!ENTITY ns_sfw "http://ns.adobe.com/SaveForWeb/1.0/">
	<!ENTITY ns_custom "http://ns.adobe.com/GenericCustomNamespace/1.0/">
	<!ENTITY ns_adobe_xpath "http://ns.adobe.com/XPath/1.0/">
]>
<svg version="1.1" xmlns:x="&ns_extend;" xmlns:i="&ns_ai;" xmlns:graph="&ns_graphs;"
	 xmlns="http://www.w3.org/2000/svg" xmlns:xlink="http://www.w3.org/1999/xlink" x="0px" y="0px" width="231px" height="229px"
	 viewBox="0 0 231 229" enable-background="new 0 0 231 229" xml:space="preserve">
<metadata>
	<sfw  xmlns="&ns_sfw;">
		<slices></slices>
		<sliceSourceBounds  x="-8076" y="-8306" width="16383" height="16383" bottomLeftOrigin="true"></sliceSourceBounds>
	</sfw>
</metadata>
<g id="compass_icon">
</g>
<g id="Layer_3">
</g>
<g id="Layer_4">
	<path fill="none" stroke="#FFFFFF" stroke-width="6" stroke-linecap="round" stroke-linejoin="round" d="M86.2,109.601
		c-4.387-2.554-8.897-4.304-13.858-5.376c-0.508,2.349-1.016,4.699-1.525,7.048c-4.208-0.91-8.305-1.14-12.588-0.704
		c-0.243-2.392-0.486-4.784-0.728-7.176c-5.051,0.511-9.728,1.747-14.373,3.794c0.97,2.2,1.94,4.4,2.91,6.599
		c-3.94,1.736-7.389,3.958-10.6,6.83c-1.601-1.793-3.203-3.586-4.806-5.379c-3.785,3.384-6.843,7.132-9.396,11.518
		c2.078,1.211,4.155,2.42,6.232,3.631c-2.166,3.721-3.65,7.545-4.561,11.754c-2.35-0.51-4.699-1.018-7.049-1.525
		c-1.074,4.961-1.344,9.793-0.832,14.842c2.392-0.244,4.784-0.486,7.176-0.729c0.434,4.283,1.481,8.25,3.218,12.189
		c-2.199,0.971-4.398,1.939-6.599,2.908c2.048,4.646,4.668,8.713,8.051,12.5c1.792-1.604,3.585-3.205,5.377-4.809
		c2.869,3.211,6.049,5.805,9.77,7.971c-1.21,2.078-2.419,4.154-3.628,6.232c4.386,2.555,8.896,4.303,13.858,5.379
		c0.508-2.352,1.017-4.701,1.525-7.051c4.208,0.91,8.305,1.141,12.588,0.707c0.243,2.389,0.486,4.781,0.728,7.174
		c5.051-0.512,9.728-1.746,14.373-3.795c-0.969-2.199-1.939-4.4-2.91-6.6c3.94-1.738,7.389-3.961,10.599-6.828
		c1.602,1.793,3.204,3.586,4.807,5.377c3.784-3.383,6.842-7.133,9.396-11.518c-2.078-1.211-4.155-2.42-6.232-3.629
		c2.166-3.723,3.65-7.547,4.561-11.754c2.351,0.508,4.7,1.018,7.05,1.525c1.073-4.963,1.343-9.791,0.832-14.842
		c-2.392,0.242-4.784,0.486-7.177,0.729c-0.434-4.283-1.482-8.25-3.218-12.191c2.2-0.969,4.398-1.939,6.599-2.91
		c-2.048-4.643-4.668-8.709-8.051-12.494c-1.792,1.601-3.584,3.204-5.376,4.805c-2.87-3.209-6.049-5.804-9.77-7.97
		C83.78,113.756,84.991,111.679,86.2,109.601z"/>
	<path fill="none" stroke="#FFFFFF" stroke-width="6" stroke-linecap="round" stroke-linejoin="round" d="M43.947,146.689
		c-2.192,10.133,4.245,20.127,14.379,22.316c10.133,2.193,20.125-4.242,22.317-14.377c2.193-10.133-4.246-20.125-14.378-22.318
		C56.132,130.121,46.14,136.557,43.947,146.689z"/>
	
		<circle fill="none" stroke="#FFFFFF" stroke-width="6" stroke-linecap="round" stroke-linejoin="round" cx="154.473" cy="75.881" r="23.669"/>
	
		<line fill="none" stroke="#FFFFFF" stroke-width="6" stroke-linecap="round" stroke-linejoin="round" x1="154.474" y1="25.068" x2="154.474" y2="15.975"/>
	
		<line fill="none" stroke="#FFFFFF" stroke-width="6" stroke-linecap="round" stroke-linejoin="round" x1="138.772" y1="27.555" x2="135.962" y2="18.906"/>
	
		<line fill="none" stroke="#FFFFFF" stroke-width="6" stroke-linecap="round" stroke-linejoin="round" x1="124.608" y1="34.773" x2="119.262" y2="27.416"/>
	
		<line fill="none" stroke="#FFFFFF" stroke-width="6" stroke-linecap="round" stroke-linejoin="round" x1="170.177" y1="27.555" x2="172.986" y2="18.906"/>
	
		<line fill="none" stroke="#FFFFFF" stroke-width="6" stroke-linecap="round" stroke-linejoin="round" x1="195.581" y1="46.013" x2="202.938" y2="40.668"/>
	
		<line fill="none" stroke="#FFFFFF" stroke-width="6" stroke-linecap="round" stroke-linejoin="round" x1="184.341" y1="34.773" x2="189.684" y2="27.416"/>
	
		<line fill="none" stroke="#FFFFFF" stroke-width="6" stroke-linecap="round" stroke-linejoin="round" x1="195.581" y1="105.747" x2="202.938" y2="111.092"/>
	
		<line fill="none" stroke="#FFFFFF" stroke-width="6" stroke-linecap="round" stroke-linejoin="round" x1="202.798" y1="91.583" x2="211.447" y2="94.392"/>
	
		<line fill="none" stroke="#FFFFFF" stroke-width="6" stroke-linecap="round" stroke-linejoin="round" x1="205.285" y1="75.881" x2="214.379" y2="75.881"/>
	
		<line fill="none" stroke="#FFFFFF" stroke-width="6" stroke-linecap="round" stroke-linejoin="round" x1="202.798" y1="60.178" x2="211.447" y2="57.368"/>
	
		<line fill="none" stroke="#FFFFFF" stroke-width="6" stroke-linecap="round" stroke-linejoin="round" x1="124.608" y1="116.988" x2="119.262" y2="124.344"/>
	
		<line fill="none" stroke="#FFFFFF" stroke-width="6" stroke-linecap="round" stroke-linejoin="round" x1="138.772" y1="124.205" x2="135.962" y2="132.854"/>
	
		<line fill="none" stroke="#FFFFFF" stroke-width="6" stroke-linecap="round" stroke-linejoin="round" x1="154.474" y1="126.693" x2="154.474" y2="135.785"/>
	
		<line fill="none" stroke="#FFFFFF" stroke-width="6" stroke-linecap="round" stroke-linejoin="round" x1="170.177" y1="124.205" x2="172.986" y2="132.854"/>
	
		<line fill="none" stroke="#FFFFFF" stroke-width="6" stroke-linecap="round" stroke-linejoin="round" x1="184.341" y1="116.988" x2="189.684" y2="124.344"/>
	
		<line fill="none" stroke="#FFFFFF" stroke-width="6" stroke-linecap="round" stroke-linejoin="round" x1="113.364" y1="46.013" x2="106.008" y2="40.668"/>
	
		<line fill="none" stroke="#FFFFFF" stroke-width="6" stroke-linecap="round" stroke-linejoin="round" x1="106.147" y1="60.178" x2="97.5" y2="57.368"/>
	
		<line fill="none" stroke="#FFFFFF" stroke-width="6" stroke-linecap="round" stroke-linejoin="round" x1="103.661" y1="75.881" x2="94.568" y2="75.881"/>
	
		<line fill="none" stroke="#FFFFFF" stroke-width="6" stroke-linecap="round" stroke-linejoin="round" x1="106.147" y1="91.583" x2="97.5" y2="94.392"/>
	
		<line fill="none" stroke="#FFFFFF" stroke-width="6" stroke-linecap="round" stroke-linejoin="round" x1="113.364" y1="105.747" x2="106.008" y2="111.092"/>
	<path fill="none" stroke="#FFFFFF" stroke-width="6" stroke-linecap="round" stroke-linejoin="round" d="M124.608,34.773
		c-4.396,3.191-8.053,6.849-11.244,11.24"/>
	<path fill="none" stroke="#FFFFFF" stroke-width="6" stroke-linecap="round" stroke-linejoin="round" d="M154.474,25.068
		c-5.43,0-10.538,0.809-15.701,2.487"/>
	<path fill="none" stroke="#FFFFFF" stroke-width="6" stroke-linecap="round" stroke-linejoin="round" d="M184.341,34.773
		c-4.394-3.191-9.004-5.541-14.164-7.218"/>
	<path fill="none" stroke="#FFFFFF" stroke-width="6" stroke-linecap="round" stroke-linejoin="round" d="M202.798,60.178
		c-1.677-5.163-4.026-9.771-7.217-14.165"/>
	<path fill="none" stroke="#FFFFFF" stroke-width="6" stroke-linecap="round" stroke-linejoin="round" d="M202.798,91.583
		c1.678-5.165,2.487-10.273,2.487-15.702"/>
	<path fill="none" stroke="#FFFFFF" stroke-width="6" stroke-linecap="round" stroke-linejoin="round" d="M184.341,116.988
		c4.392-3.19,8.05-6.85,11.24-11.241"/>
	<path fill="none" stroke="#FFFFFF" stroke-width="6" stroke-linecap="round" stroke-linejoin="round" d="M154.474,126.693
		c5.428,0,10.539-0.811,15.703-2.488"/>
	<path fill="none" stroke="#FFFFFF" stroke-width="6" stroke-linecap="round" stroke-linejoin="round" d="M124.608,116.988
		c4.392,3.191,9,5.539,14.164,7.217"/>
	<path fill="none" stroke="#FFFFFF" stroke-width="6" stroke-linecap="round" stroke-linejoin="round" d="M106.147,91.583
		c1.679,5.163,4.027,9.771,7.217,14.165"/>
	<path fill="none" stroke="#FFFFFF" stroke-width="6" stroke-linecap="round" stroke-linejoin="round" d="M106.147,60.178
		c-1.675,5.164-2.487,10.273-2.487,15.703"/>
	<path fill="none" stroke="#FFFFFF" stroke-width="6" stroke-linecap="round" stroke-linejoin="round" d="M172.986,18.906
		c-6.089-1.977-12.112-2.931-18.513-2.931"/>
	<path fill="none" stroke="#FFFFFF" stroke-width="6" stroke-linecap="round" stroke-linejoin="round" d="M202.938,40.668
		c-3.761-5.178-8.074-9.491-13.254-13.253"/>
	<path fill="none" stroke="#FFFFFF" stroke-width="6" stroke-linecap="round" stroke-linejoin="round" d="M214.379,75.881
		c0-6.401-0.954-12.425-2.932-18.513"/>
	<path fill="none" stroke="#FFFFFF" stroke-width="6" stroke-linecap="round" stroke-linejoin="round" d="M202.938,111.092
		c3.762-5.179,6.532-10.614,8.51-16.7"/>
	<path fill="none" stroke="#FFFFFF" stroke-width="6" stroke-linecap="round" stroke-linejoin="round" d="M172.986,132.854
		c6.086-1.979,11.521-4.748,16.697-8.51"/>
	<path fill="none" stroke="#FFFFFF" stroke-width="6" stroke-linecap="round" stroke-linejoin="round" d="M135.962,132.854
		c6.086,1.979,12.11,2.932,18.512,2.932"/>
	<path fill="none" stroke="#FFFFFF" stroke-width="6" stroke-linecap="round" stroke-linejoin="round" d="M106.008,111.092
		c3.764,5.177,8.076,9.49,13.254,13.251"/>
	<path fill="none" stroke="#FFFFFF" stroke-width="6" stroke-linecap="round" stroke-linejoin="round" d="M94.568,75.881
		c0,6.4,0.954,12.424,2.932,18.511"/>
	<path fill="none" stroke="#FFFFFF" stroke-width="6" stroke-linecap="round" stroke-linejoin="round" d="M106.008,40.668
		c-3.762,5.178-6.53,10.613-8.508,16.699"/>
	<path fill="none" stroke="#FFFFFF" stroke-width="6" stroke-linecap="round" stroke-linejoin="round" d="M135.962,18.906
		c-6.089,1.979-11.522,4.748-16.7,8.51"/>
	<path fill="none" stroke="#FFFFFF" stroke-width="4.2358" stroke-linecap="round" stroke-linejoin="round" d="M164.919,149.223
		c-3.098-1.804-6.281-3.039-9.783-3.796c-0.358,1.657-0.718,3.317-1.076,4.976c-2.972-0.643-5.864-0.804-8.887-0.497
		c-0.172-1.688-0.344-3.378-0.515-5.065c-3.565,0.361-6.867,1.233-10.146,2.679c0.685,1.554,1.37,3.106,2.054,4.658
		c-2.78,1.226-5.216,2.796-7.482,4.82c-1.131-1.266-2.262-2.531-3.393-3.796c-2.673,2.389-4.831,5.035-6.634,8.131
		c1.466,0.854,2.934,1.709,4.4,2.564c-1.529,2.626-2.578,5.326-3.221,8.297c-1.658-0.36-3.317-0.718-4.977-1.077
		c-0.757,3.503-0.948,6.914-0.588,10.478c1.689-0.172,3.378-0.342,5.066-0.513c0.307,3.022,1.047,5.823,2.272,8.604
		c-1.554,0.686-3.105,1.369-4.659,2.053c1.446,3.281,3.295,6.151,5.685,8.825c1.265-1.132,2.53-2.263,3.796-3.396
		c2.024,2.268,4.271,4.099,6.896,5.628c-0.854,1.467-1.707,2.933-2.561,4.399c3.096,1.805,6.279,3.037,9.783,3.798
		c0.357-1.661,0.718-3.319,1.076-4.978c2.971,0.643,5.863,0.805,8.887,0.499c0.171,1.686,0.344,3.376,0.514,5.064
		c3.565-0.361,6.868-1.233,10.146-2.68c-0.684-1.552-1.369-3.105-2.054-4.658c2.781-1.228,5.216-2.797,7.482-4.821
		c1.131,1.267,2.262,2.532,3.393,3.797c2.672-2.388,4.832-5.036,6.634-8.132c-1.467-0.854-2.933-1.709-4.4-2.563
		c1.529-2.627,2.577-5.327,3.221-8.297c1.659,0.357,3.317,0.718,4.977,1.077c0.758-3.504,0.948-6.912,0.589-10.478
		c-1.69,0.17-3.379,0.342-5.067,0.514c-0.307-3.023-1.047-5.824-2.272-8.606c1.554-0.685,3.105-1.369,4.659-2.056
		c-1.445-3.277-3.296-6.148-5.685-8.821c-1.266,1.131-2.53,2.263-3.796,3.393c-2.024-2.266-4.271-4.097-6.896-5.626
		C163.211,152.156,164.065,150.69,164.919,149.223z"/>
	
		<circle fill="none" stroke="#FFFFFF" stroke-width="4.2358" stroke-linecap="round" stroke-linejoin="round" cx="148.043" cy="178.209" r="13.253"/>
</g>
</svg>
