<?xml version="1.0" encoding="utf-8"?>
<!-- Generator: Adobe Illustrator 15.1.0, SVG Export Plug-In . SVG Version: 6.00 Build 0)  -->
<!DOCTYPE svg PUBLIC "-//W3C//DTD SVG 1.1//EN" "http://www.w3.org/Graphics/SVG/1.1/DTD/svg11.dtd" [
	<!ENTITY ns_extend "http://ns.adobe.com/Extensibility/1.0/">
	<!ENTITY ns_ai "http://ns.adobe.com/AdobeIllustrator/10.0/">
	<!ENTITY ns_graphs "http://ns.adobe.com/Graphs/1.0/">
	<!ENTITY ns_vars "http://ns.adobe.com/Variables/1.0/">
	<!ENTITY ns_imrep "http://ns.adobe.com/ImageReplacement/1.0/">
	<!ENTITY ns_sfw "http://ns.adobe.com/SaveForWeb/1.0/">
	<!ENTITY ns_custom "http://ns.adobe.com/GenericCustomNamespace/1.0/">
	<!ENTITY ns_adobe_xpath "http://ns.adobe.com/XPath/1.0/">
]>
<svg version="1.1" xmlns:x="&ns_extend;" xmlns:i="&ns_ai;" xmlns:graph="&ns_graphs;"
	 xmlns="http://www.w3.org/2000/svg" xmlns:xlink="http://www.w3.org/1999/xlink" x="0px" y="0px" width="231px" height="229px"
	 viewBox="0 0 231 229" enable-background="new 0 0 231 229" xml:space="preserve">
<metadata>
	<sfw  xmlns="&ns_sfw;">
		<slices></slices>
		<sliceSourceBounds  x="-8076" y="-8306" width="16383" height="16383" bottomLeftOrigin="true"></sliceSourceBounds>
	</sfw>
</metadata>
<g id="compass_icon">
</g>
<g id="Layer_3">
</g>
<g id="Layer_4">
	
		<circle fill="none" stroke="#FFFFFF" stroke-width="6" stroke-linecap="round" stroke-linejoin="round" cx="115" cy="114.667" r="100.25"/>
	<polygon fill="#FFFFFF" stroke="#FFFFFF" stroke-width="6" stroke-linejoin="round" stroke-miterlimit="10" points="
		19.359,125.258 29.951,114.667 19.359,104.074 	"/>
	<polygon fill="#FFFFFF" stroke="#FFFFFF" stroke-width="6" stroke-linejoin="round" stroke-miterlimit="10" points="
		210.641,104.535 200.049,115.127 210.641,125.719 	"/>
	<polygon fill="#FFFFFF" stroke="#FFFFFF" stroke-width="6" stroke-linejoin="round" stroke-miterlimit="10" points="
		104.177,18.564 114.77,29.156 125.361,18.564 	"/>
	<polygon fill="#FFFFFF" stroke="#FFFFFF" stroke-width="6" stroke-linejoin="round" stroke-miterlimit="10" points="
		125.822,210.768 115.23,200.176 104.638,210.768 	"/>
	<path fill="#FFFFFF" d="M127.659,126.943l43.774-66.707l-68.428,41.034l-0.045-0.048l-0.082,0.125l-0.122,0.073l0.044,0.045
		l-43.775,66.708l68.43-41.033l0.045,0.047l0.08-0.123l0.123-0.074L127.659,126.943z M115.529,122.439
		c-4.489,0-8.127-3.639-8.127-8.127c0-4.489,3.638-8.127,8.127-8.127c4.488,0,8.126,3.638,8.126,8.127
		C123.655,118.801,120.018,122.439,115.529,122.439z"/>
</g>
</svg>
