<?xml version="1.0" encoding="utf-8"?>
<!-- Generator: Adobe Illustrator 15.1.0, SVG Export Plug-In . SVG Version: 6.00 Build 0)  -->
<!DOCTYPE svg PUBLIC "-//W3C//DTD SVG 1.1//EN" "http://www.w3.org/Graphics/SVG/1.1/DTD/svg11.dtd" [
	<!ENTITY ns_extend "http://ns.adobe.com/Extensibility/1.0/">
	<!ENTITY ns_ai "http://ns.adobe.com/AdobeIllustrator/10.0/">
	<!ENTITY ns_graphs "http://ns.adobe.com/Graphs/1.0/">
	<!ENTITY ns_vars "http://ns.adobe.com/Variables/1.0/">
	<!ENTITY ns_imrep "http://ns.adobe.com/ImageReplacement/1.0/">
	<!ENTITY ns_sfw "http://ns.adobe.com/SaveForWeb/1.0/">
	<!ENTITY ns_custom "http://ns.adobe.com/GenericCustomNamespace/1.0/">
	<!ENTITY ns_adobe_xpath "http://ns.adobe.com/XPath/1.0/">
]>
<svg version="1.1" xmlns:x="&ns_extend;" xmlns:i="&ns_ai;" xmlns:graph="&ns_graphs;"
	 xmlns="http://www.w3.org/2000/svg" xmlns:xlink="http://www.w3.org/1999/xlink" x="0px" y="0px" width="231px" height="229px"
	 viewBox="0 0 231 229" enable-background="new 0 0 231 229" xml:space="preserve">
<metadata>
	<sfw  xmlns="&ns_sfw;">
		<slices></slices>
		<sliceSourceBounds  x="-8076" y="-8306" width="16383" height="16383" bottomLeftOrigin="true"></sliceSourceBounds>
	</sfw>
</metadata>
<g id="compass_icon">
</g>
<g id="Layer_3">
</g>
<g id="Layer_4">
	<g>
		<path fill="none" d="M114.836,81.603c-16.498,12.816-27.597,32.229-29.35,54.287c0.007,0.003,0.015,0.008,0.021,0.01
			c0,0.003,0,0.006,0,0.008c9.215,3.936,19.355,6.12,30.007,6.12c4.691,0,9.284-0.423,13.745-1.232
			c5.193-0.942,10.196-2.422,14.968-4.358C142.618,114.154,131.471,94.525,114.836,81.603z"/>
		<path fill="none" d="M191.768,71.671c0.069,0.03,0.138,0.063,0.206,0.093c-0.063-0.112-0.129-0.222-0.191-0.333
			C191.776,71.51,191.774,71.591,191.768,71.671z"/>
		<path fill="none" d="M114.847,81.595c-12.139-9.426-27.181-15.291-43.567-15.986c16.382,0.701,31.42,6.566,43.557,15.994
			C114.84,81.601,114.843,81.598,114.847,81.595z"/>
		<path fill="none" d="M114.485,202.731c0.258,0.002,0.513,0.019,0.772,0.021c-0.133-0.102-0.269-0.197-0.4-0.298
			C114.736,202.548,114.608,202.638,114.485,202.731z"/>
		<path fill="none" d="M39.252,71.131c0.007-0.002,0.014-0.005,0.021-0.008c-0.007-0.111-0.011-0.223-0.02-0.334
			c-0.09,0.156-0.179,0.311-0.268,0.467c0.09-0.037,0.177-0.078,0.267-0.114C39.253,71.137,39.252,71.134,39.252,71.131z"/>
		<path fill="none" d="M191.747,71.67c-2.336,29.419-21.311,54.143-47.52,64.767c0.135,1.848,0.225,3.708,0.225,5.591
			c0,24.57-11.6,46.421-29.605,60.416c0.004,0.003,0.008,0.009,0.011,0.011c18.015-13.996,29.619-35.849,29.619-60.425
			c0-1.885-0.092-3.742-0.227-5.59c26.21-10.627,45.186-35.349,47.518-64.768c-8.071-3.453-16.856-5.559-26.072-6.031
			C174.905,66.115,183.679,68.222,191.747,71.67z"/>
		<path fill="#66FF00" d="M85.508,135.899c-0.007-0.002-0.015-0.007-0.021-0.01c-0.001,0.003-0.002,0.005-0.002,0.01
			c0.007,0.003,0.015,0.006,0.023,0.008C85.507,135.905,85.508,135.902,85.508,135.899z"/>
		<path fill="#66FF00" stroke="#FFFFFF" stroke-width="7.9622" stroke-linejoin="round" stroke-miterlimit="10" d="M114.847,202.443
			c-0.004,0.003-0.007,0.005-0.01,0.009c-18.014-13.994-29.617-35.847-29.617-60.423c0-2.065,0.105-4.104,0.265-6.13
			c-25.683-10.977-44.119-35.602-46.231-64.758c-0.09,0.037-0.177,0.077-0.267,0.114c-7.349,12.847-11.571,27.713-11.571,43.574
			c0,48.275,38.905,87.443,87.07,87.902c0.123-0.094,0.25-0.184,0.373-0.277C114.854,202.452,114.851,202.446,114.847,202.443z"/>
		<path fill="#0066FF" stroke="#FFFFFF" stroke-width="7.9622" stroke-linejoin="round" stroke-miterlimit="10" d="M144.25,136.439
			c0.135,1.848,0.227,3.705,0.227,5.59c0,24.576-11.604,46.429-29.619,60.425c0.131,0.101,0.267,0.196,0.4,0.298
			c0.025,0,0.051,0,0.077,0c48.556,0,87.917-39.362,87.917-87.922c0-15.651-4.108-30.335-11.278-43.065
			c-0.068-0.03-0.137-0.063-0.206-0.093C189.436,101.09,170.46,125.813,144.25,136.439z"/>
		<path fill="#FF0000" stroke="#FFFFFF" stroke-width="7.9622" stroke-linejoin="round" stroke-miterlimit="10" d="M67.965,65.538
			c1.11,0,2.216,0.024,3.315,0.071c16.386,0.696,31.429,6.561,43.567,15.986c12.947-10.055,29.197-16.058,46.86-16.058
			c1.337,0,2.668,0.035,3.988,0.103c9.216,0.472,18.001,2.578,26.072,6.031c0.007-0.08,0.009-0.161,0.015-0.24
			c-15.121-26.578-43.682-44.517-76.447-44.517c-32.504,0-60.866,17.649-76.081,43.874c0.008,0.112,0.012,0.223,0.02,0.334
			C48.135,67.532,57.814,65.538,67.965,65.538z"/>
		
			<path fill="#00FFFF" stroke="#FFFFFF" stroke-width="7.9622" stroke-linecap="square" stroke-linejoin="round" stroke-miterlimit="10" d="
			M144.452,142.027c0-1.883-0.09-3.743-0.225-5.591c-4.771,1.937-9.774,3.416-14.968,4.358c-4.461,0.81-9.054,1.232-13.745,1.232
			c-10.652,0-20.792-2.185-30.007-6.12c-0.008-0.002-0.016-0.005-0.023-0.008c-0.16,2.025-0.265,4.064-0.265,6.13
			c0,24.576,11.604,46.429,29.617,60.423c0.003-0.004,0.006-0.006,0.01-0.009C132.853,188.448,144.452,166.598,144.452,142.027z"/>
		
			<path fill="#FFFF00" stroke="#FFFFFF" stroke-width="7.9622" stroke-linecap="square" stroke-linejoin="round" stroke-miterlimit="10" d="
			M114.836,81.603C102.7,72.175,87.662,66.31,71.28,65.609c-1.099-0.047-2.205-0.071-3.315-0.071c-10.15,0-19.83,1.994-28.691,5.585
			c-0.007,0.003-0.014,0.005-0.021,0.008c0,0.003,0,0.006,0,0.01c2.112,29.157,20.548,53.782,46.231,64.758
			c0-0.005,0-0.007,0.002-0.01C87.239,113.832,98.339,94.419,114.836,81.603z"/>
		<path fill="#FF0099" stroke="#FFFFFF" stroke-width="7.9622" stroke-linejoin="round" stroke-miterlimit="10" d="M144.228,136.437
			c26.209-10.624,45.184-35.347,47.52-64.767c-8.068-3.448-16.842-5.555-26.052-6.029c-1.32-0.068-2.651-0.103-3.988-0.103
			c-17.663,0-33.913,6.002-46.86,16.058c-0.004,0.003-0.007,0.006-0.011,0.008C131.471,94.525,142.618,114.154,144.228,136.437z"/>
	</g>
</g>
</svg>
